,
  Hottest scene tracker on the net !!!   http://www.scenetime.com
 
         Please seed back after your download is completed

           Credit goes  to all seeders and  http://www.scenetime.com
 



...................................NFO:.................................................[pre]  
    *********** ****    ****      ***      ******** *********** ****    *** **********
           *+*     +*+*+* *+*+*+   *+* *+*   *+*    *+*    *+*     *+*+*   *+* *+*        
           +*+     +*+ +*+*+ +*+  +*+   +*+  +*+           +*+     *+*+*+  +*+ +*+        
           +$+     +$+  +*+  +$+ +$++*++$++* *$*           +$+     +$+ +*+ +$+ +$++*++$  
           +$+     +$+       +$+ +$+     +$+ +$+   +$+$    +$+     +$+  +$+$+$ +$+        
           $+$     $+$       $+$ $+$     $+$ $+$    $+$    $+$     $+$   $+$+$ $+$        
       $$$$$$$$$$$ $$$       $$$ $$$     $$$  $$$$$$$$ $$$$$$$$$$$ $$$    $$$$ $$$$$$$$$$     
                                                



                           Another Fine Release Brought to you from - IMAGiNE                   
                                                 

********************************************************************************************************************                                
                  Wall Street 2 Money Never Sleeps R5 LiNE XViD - IMAGiNE
********************************************************************************************************************

Ripper ...........: IMAGiNE                                        IMDB Rating.......:6.8/10                             
Video Codec.......: XVID                                         Release Date......:23/10/10
Audio Codec.......:MP3                                           Theatre Date......:20/09/10
Audio Bitrate.....:128                                              Runtime.......:2h 07mn
Subtitles.........:NIL                                                 Language..........:ENGLISH
Resolution...... 720x 304                                    IMDb URL..........:http://www.imdb.com/title/tt1027718/


[color=yellow]DETAILS:[/color]

Video
ID                               : 0
Format                           : MPEG-4 Visual
Format profile                   : Advanced Simple@L5
Format settings, BVOP            : Yes
Format settings, QPel            : No
Format settings, GMC             : No warppoints
Format settings, Matrix          : Default (H.263)
Muxing mode                      : Packed bitstream
Codec ID                         : XVID
Codec ID/Hint                    : XviD
Duration                         : 2h 7mn
Bit rate                         : 2 152 Kbps
Width                            : 720 pixels
Height                           : 304 pixels
Display aspect ratio             : 2.35
Frame rate                       : 25.000 fps
Resolution                       : 24 bits
Colorimetry                      : 4:2:0
Scan type                        : Progressive
Bits/(Pixel*Frame)               : 0.393
Stream size                      : 1.92 GiB (94%)
Writing library                  : XviD 1.1.2 (UTC 2006-11-01)

Audio
ID                               : 1
Format                           : MPEG Audio
Format version                   : Version 1
Format profile                   : Layer 3
Codec ID                         : 55
Codec ID/Hint                    : MP3
Duration                         : 2h 7mn
Bit rate mode                    : Constant
Bit rate                         : 128 Kbps
Channel(s)                       : 2 channels
Sampling rate                    : 44.1 KHz
Resolution                       : 16 bits
Stream size                      : 117 MiB (6%)
Alignment                        : Split accross interleaves
Interleave, duration             : 40 ms (1.00 video frame)
Interleave, preload duration     : 500 ms



[color=yellow]SOURCES:[/color]

VIDEO:Wall Street 2 Money Never Sleeps R5 DVDR..............Thanks 
AUDIO:LAP .......Thanks

[color=yellow]NOTES:[/color]

IMAGiNE bringing you another release..........Wall St.2

Right here we are running late again with this one.....anyway we used laps audio as it was the best out and
used the russian dvdr.
Now once again the r5 dvdr was poor by the normal standard so we think.It was way too dark and colours too
strong and also off.
Anyway we made a script to fix the colours the best we could and also made it alot brighter ..roughly + 10 on brightness
alone + we added our normal resize,white balance etc...
Now the audio we used laps audio and added the last 3 mins of audio for the credits off the original russian track to make it 
complete.
We also gone for a larger file size due to the runtime of the film being over 2hrs and we wanted to keep a really nice bitrate.


Enjoy folks 

[color=yellow]SCREENS:[/color]

[IMG]http://imagine.takagari.com/Wall%20st%202%20r5/vlcsnap-259772.png[/IMG]
[IMG]http://imagine.takagari.com/Wall%20st%202%20r5/vlcsnap-260784.png[/IMG]
[IMG]http://imagine.takagari.com/Wall%20st%202%20r5/vlcsnap-261073.png[/IMG]
[IMG]http://imagine.takagari.com/Wall%20st%202%20r5/vlcsnap-261528.png[/IMG]
[IMG]http://imagine.takagari.com/Wall%20st%202%20r5/vlcsnap-261746.png[/IMG]
[IMG]http://imagine.takagari.com/Wall%20st%202%20r5/vlcsnap-262447.png[/IMG]
[IMG]http://imagine.takagari.com/Wall%20st%202%20r5/vlcsnap-267901.png[/IMG]


[color=yellow]GREETS:[/color]

FLAWL3SS,ViSiON,FUSiON,Rx,SecretMyth,BirdFlu,ELEKTRI4KA and Autotron
And to all the other p2p grps past and present 

[COLOR=RED]Looking for these,syncers,cammers,silver supplier.....Have anything to offer????......
Contact us imaginegroup@hushmail.com[/COLOR][/pre]